<?xml version="1.0" encoding="UTF-8"?>
<!DOCTYPE svg PUBLIC "-//W3C//DTD SVG 1.1//EN" "http://www.w3.org/Graphics/SVG/1.1/DTD/svg11.dtd">
<svg xmlns="http://www.w3.org/2000/svg" version="1.1" width="800px" height="200px" style="shape-rendering:geometricPrecision; text-rendering:geometricPrecision; image-rendering:optimizeQuality; fill-rule:evenodd; clip-rule:evenodd" xmlns:xlink="http://www.w3.org/1999/xlink">
<g><path style="opacity:0.968" fill="#fefdfd" d="M 203.5,136.5 C 192.833,127.167 182.167,117.833 171.5,108.5C 167.435,103.432 162.768,99.0984 157.5,95.5C 154.43,92.4362 151.763,89.1029 149.5,85.5C 162.309,56.097 154.976,33.2636 127.5,17C 95.8074,7.2643 73.974,17.7643 62,48.5C 59.4334,60.245 60.6,71.5783 65.5,82.5C 65.6602,84.1992 65.4935,85.8659 65,87.5C 62.8169,89.9071 60.6503,92.2404 58.5,94.5C 54.7881,97.2109 51.7881,100.544 49.5,104.5C 38.4527,115.215 27.4527,125.882 16.5,136.5C 0.25578,86.4936 13.5891,46.3269 56.5,16C 104.503,-8.63655 147.67,-2.13655 186,35.5C 210.873,65.8552 216.706,99.5218 203.5,136.5 Z"/></g>
<g><path style="opacity:1" fill="#b53641" d="M 149.5,85.5 C 147.629,85.1412 146.129,84.1412 145,82.5C 137.833,74 130.667,65.5 123.5,57C 120.538,55.4359 117.538,55.2692 114.5,56.5C 110.989,52.1782 106.656,51.3448 101.5,54C 100.257,55.1545 99.2567,56.4878 98.5,58C 96.1667,58.3333 93.8333,58.6667 91.5,59C 83.8333,67.3333 76.1667,75.6667 68.5,84C 67.212,84.2387 66.212,83.7387 65.5,82.5C 60.6,71.5783 59.4334,60.245 62,48.5C 73.974,17.7643 95.8074,7.2643 127.5,17C 154.976,33.2636 162.309,56.097 149.5,85.5 Z"/></g>
<g><path style="opacity:0.751" fill="#0045aa" d="M 250.5,14.5 C 253.833,14.5 257.167,14.5 260.5,14.5C 262.626,31.5903 265.293,48.5903 268.5,65.5C 265.232,66.487 261.898,66.8204 258.5,66.5C 257.947,61.518 257.613,56.518 257.5,51.5C 250.492,51.3337 243.492,51.5004 236.5,52C 233.251,56.4968 230.251,61.1635 227.5,66C 224.854,66.4974 222.187,66.6641 219.5,66.5C 219.343,65.1266 219.51,63.7932 220,62.5C 225.396,54.7659 230.396,46.7659 235,38.5C 236.333,37.1667 237.667,35.8333 239,34.5C 242.661,27.6872 246.495,21.0205 250.5,14.5 Z M 252.5,24.5 C 253.693,24.9704 254.36,25.9704 254.5,27.5C 255.168,33.1799 255.834,38.8466 256.5,44.5C 251.156,44.666 245.823,44.4994 240.5,44C 245.122,37.8793 249.122,31.3793 252.5,24.5 Z"/></g>
<g><path style="opacity:0.741" fill="#0045aa" d="M 283.5,14.5 C 286.518,14.3354 289.518,14.502 292.5,15C 290.454,20.3456 289.287,25.8456 289,31.5C 296.992,25.8633 304.659,26.1967 312,32.5C 315.94,45.0214 312.774,55.5214 302.5,64C 295.023,67.4849 287.69,67.3182 280.5,63.5C 279.614,64.325 279.281,65.325 279.5,66.5C 276.833,66.5 274.167,66.5 271.5,66.5C 276.445,49.3861 280.445,32.0528 283.5,14.5 Z M 295.5,34.5 C 304.105,34.0084 307.272,38.0084 305,46.5C 304.124,54.3761 299.791,59.0427 292,60.5C 286.247,60.215 283.414,57.215 283.5,51.5C 284.348,43.4272 288.348,37.7605 295.5,34.5 Z"/></g>
<g><path style="opacity:0.727" fill="#0045aa" d="M 411.5,18.5 C 414.572,18.1826 417.572,18.5159 420.5,19.5C 419.5,22.1667 418.5,24.8333 417.5,27.5C 420.086,28.48 422.753,28.8134 425.5,28.5C 425.5,30.8333 425.5,33.1667 425.5,35.5C 422.167,35.5 418.833,35.5 415.5,35.5C 414.153,42.8906 412.486,50.2239 410.5,57.5C 410.434,59.2664 411.268,60.2664 413,60.5C 415.047,59.3906 417.213,58.7239 419.5,58.5C 419.5,60.8333 419.5,63.1667 419.5,65.5C 416.698,65.9823 413.865,66.3157 411,66.5C 405.563,67.5467 402.73,65.38 402.5,60C 404.019,51.9314 405.685,43.9314 407.5,36C 404.854,35.5026 402.187,35.3359 399.5,35.5C 399.674,33.139 400.007,30.8056 400.5,28.5C 403.518,28.6646 406.518,28.498 409.5,28C 410.866,25.0027 411.533,21.836 411.5,18.5 Z"/></g>
<g><path style="opacity:0.745" fill="#0045aa" d="M 334.5,27.5 C 350.954,25.4501 357.454,32.4501 354,48.5C 347.766,65.2871 336.432,70.2871 320,63.5C 314.196,50.8818 316.696,40.0485 327.5,31C 329.925,29.7874 332.259,28.6207 334.5,27.5 Z M 334.5,34.5 C 343.558,32.7282 347.725,36.3948 347,45.5C 345.552,49.5621 343.718,53.3954 341.5,57C 329.198,64.0216 323.698,60.5216 325,46.5C 326.951,41.3991 330.117,37.3991 334.5,34.5 Z"/></g>
<g><path style="opacity:0.723" fill="#0045aa" d="M 363.5,28.5 C 366.5,28.5 369.5,28.5 372.5,28.5C 369.261,38.2667 367.428,48.2667 367,58.5C 369.627,60.9883 372.46,61.1549 375.5,59C 381.691,54.8017 385.525,48.9684 387,41.5C 387.515,37.4227 388.349,33.4227 389.5,29.5C 392.446,28.3452 395.446,28.1786 398.5,29C 393.911,41.1116 390.911,53.6116 389.5,66.5C 386.428,66.8174 383.428,66.4841 380.5,65.5C 381.326,64.549 381.492,63.549 381,62.5C 375.795,66.3188 369.962,67.4855 363.5,66C 361.998,65.4169 360.665,64.5836 359.5,63.5C 358.394,59.223 358.228,54.8897 359,50.5C 361.405,43.3554 362.905,36.0221 363.5,28.5 Z"/></g>
<g><path style="opacity:1" fill="#f5f3f3" d="M 149.5,85.5 C 151.763,89.1029 154.43,92.4362 157.5,95.5C 150.742,92.9184 144.908,88.9184 140,83.5C 139.86,85.2555 140.36,86.9222 141.5,88.5C 141.137,89.1835 140.804,89.8501 140.5,90.5C 136.18,89.8376 132.513,87.8376 129.5,84.5C 128.24,86.3529 128.24,88.1862 129.5,90C 128.667,90.8333 127.833,91.6667 127,92.5C 124,89.5 121,86.5 118,83.5C 117.605,85.1786 117.772,86.8453 118.5,88.5C 117.194,95.7359 115.361,96.0692 113,89.5C 111.214,92.9577 109.881,96.6244 109,100.5C 108.155,98.3885 107.322,96.3885 106.5,94.5C 105.852,92.9142 105.352,91.2475 105,89.5C 102.725,93.7324 100.225,97.7324 97.5,101.5C 97.2758,95.2818 97.2758,88.9485 97.5,82.5C 94.1547,86.3446 90.6547,90.0112 87,93.5C 86.6012,93.2716 86.4346,92.9382 86.5,92.5C 86.5,91.8333 86.5,91.1667 86.5,90.5C 87.9039,87.6825 88.7372,84.6825 89,81.5C 86.0494,84.5724 83.2161,87.7391 80.5,91C 76.8812,93.289 73.5479,95.789 70.5,98.5C 70.5,97.5 70.5,96.5 70.5,95.5C 73.1343,93.1012 74.3009,90.1012 74,86.5C 69.1719,89.8307 64.0052,92.4973 58.5,94.5C 60.6503,92.2404 62.8169,89.9071 65,87.5C 65.4935,85.8659 65.6602,84.1992 65.5,82.5C 66.212,83.7387 67.212,84.2387 68.5,84C 76.1667,75.6667 83.8333,67.3333 91.5,59C 93.8333,58.6667 96.1667,58.3333 98.5,58C 99.2567,56.4878 100.257,55.1545 101.5,54C 106.656,51.3448 110.989,52.1782 114.5,56.5C 117.538,55.2692 120.538,55.4359 123.5,57C 130.667,65.5 137.833,74 145,82.5C 146.129,84.1412 147.629,85.1412 149.5,85.5 Z"/></g>
<g><path style="opacity:0.643" fill="#285ef6" d="M 392.5,77.5 C 394.288,77.2148 395.955,77.5481 397.5,78.5C 411.683,108.198 425.849,137.864 440,167.5C 443.198,170.682 447.031,172.682 451.5,173.5C 452.452,175.045 452.785,176.712 452.5,178.5C 435.833,178.5 419.167,178.5 402.5,178.5C 402.5,176.833 402.5,175.167 402.5,173.5C 406.872,173.189 411.038,172.189 415,170.5C 415.781,169.271 416.281,167.938 416.5,166.5C 413.456,158.533 410.123,150.699 406.5,143C 393.833,142.333 381.167,142.333 368.5,143C 366.205,147.759 364.038,152.592 362,157.5C 360.86,168.032 365.694,173.199 376.5,173C 377.406,174.699 377.739,176.533 377.5,178.5C 364.167,178.5 350.833,178.5 337.5,178.5C 337.34,176.801 337.506,175.134 338,173.5C 340.071,172.475 342.238,171.642 344.5,171C 348.714,166.454 352.547,161.621 356,156.5C 368.72,130.394 380.887,104.061 392.5,77.5 Z M 392.5,89.5 C 405.083,115.389 417.583,141.389 430,167.5C 431.5,169 433,170.5 434.5,172C 429.5,172.667 424.5,172.667 419.5,172C 421.504,169.159 422.004,165.993 421,162.5C 411.015,141.236 401.015,119.903 391,98.5C 390.403,95.3188 390.903,92.3188 392.5,89.5 Z M 386.5,101.5 C 392.092,113.02 397.426,124.687 402.5,136.5C 392.145,136.832 381.812,136.499 371.5,135.5C 377.062,124.38 382.062,113.047 386.5,101.5 Z M 356.5,164.5 C 357.188,167.02 358.188,169.52 359.5,172C 356.5,172.667 353.5,172.667 350.5,172C 353.118,169.894 355.118,167.394 356.5,164.5 Z"/></g>
<g><path style="opacity:0.677" fill="#285ef6" d="M 490.5,77.5 C 501.838,77.3335 513.172,77.5001 524.5,78C 529.833,80.3333 535.167,82.6667 540.5,85C 549.304,94.7159 550.804,105.549 545,117.5C 539.293,125.515 531.459,129.682 521.5,130C 511.193,131.078 500.86,131.578 490.5,131.5C 490.067,142.91 490.567,154.244 492,165.5C 493.122,167.624 494.622,169.457 496.5,171C 500.179,171.835 503.845,172.668 507.5,173.5C 508.452,175.045 508.785,176.712 508.5,178.5C 491.154,178.833 473.821,178.5 456.5,177.5C 455.653,175.939 455.986,174.439 457.5,173C 462.694,173.062 466.527,170.895 469,166.5C 470.128,153.72 470.628,140.886 470.5,128C 470.628,115.114 470.128,102.28 469,89.5C 467.833,88.3333 466.667,87.1667 465.5,86C 461.951,84.6265 458.618,82.9599 455.5,81C 455.957,80.586 456.291,80.086 456.5,79.5C 467.993,78.8333 479.326,78.1667 490.5,77.5 Z M 499.5,82.5 C 511.02,80.6111 520.186,84.2778 527,93.5C 532.249,111.196 526.082,122.029 508.5,126C 502.509,126.499 496.509,126.666 490.5,126.5C 490.333,115.162 490.5,103.828 491,92.5C 491.599,87.1489 494.433,83.8156 499.5,82.5 Z M 470.5,84.5 C 475.829,83.7468 481.496,83.5801 487.5,84C 485.152,84.1102 483.652,85.2769 483,87.5C 482.333,114.833 482.333,142.167 483,169.5C 483.833,170.333 484.667,171.167 485.5,172C 480.833,172.667 476.167,172.667 471.5,172C 473.333,171.5 474.5,170.333 475,168.5C 475.667,141.833 475.667,115.167 475,88.5C 474.252,86.249 472.752,84.9156 470.5,84.5 Z M 526.5,86.5 C 526.897,85.475 527.563,85.3083 528.5,86C 539.116,93.7435 541.616,103.577 536,115.5C 534.281,118.219 531.947,120.219 529,121.5C 530.089,117.913 531.422,114.246 533,110.5C 534.856,101.246 532.69,93.2462 526.5,86.5 Z"/></g>
<g><path style="opacity:0.639" fill="#285ef6" d="M 606.5,77.5 C 608.167,77.5 609.833,77.5 611.5,77.5C 623.081,103.658 634.914,129.658 647,155.5C 649.634,161.272 653.134,166.439 657.5,171C 660.172,171.834 662.839,172.668 665.5,173.5C 666.452,175.045 666.785,176.712 666.5,178.5C 649.83,178.667 633.163,178.5 616.5,178C 615.167,176.667 615.167,175.333 616.5,174C 619.711,172.847 623.044,172.18 626.5,172C 628.776,171.126 630.11,169.459 630.5,167C 627.63,158.596 623.963,150.596 619.5,143C 606.838,142.5 594.171,142.333 581.5,142.5C 579.911,147.258 578.078,151.925 576,156.5C 574.574,161.757 575.741,166.257 579.5,170C 583.031,171.606 586.698,172.772 590.5,173.5C 591.452,175.045 591.785,176.712 591.5,178.5C 577.833,178.5 564.167,178.5 550.5,178.5C 550.34,176.801 550.506,175.134 551,173.5C 553.816,172.338 556.65,171.171 559.5,170C 562.788,165.923 565.955,161.756 569,157.5C 581.768,130.963 594.268,104.296 606.5,77.5 Z M 606.5,89.5 C 617.452,111.245 627.785,133.411 637.5,156C 640.573,161.476 643.906,166.809 647.5,172C 642.833,172.667 638.167,172.667 633.5,172C 635.478,169.503 635.978,166.669 635,163.5C 624.797,141.073 614.297,118.74 603.5,96.5C 604.788,94.2612 605.788,91.9279 606.5,89.5 Z M 599.5,103.5 C 601.074,103.937 602.241,104.937 603,106.5C 606.97,116.438 611.47,126.104 616.5,135.5C 605.849,136.666 595.182,136.832 584.5,136C 589.93,125.309 594.93,114.476 599.5,103.5 Z M 569.5,165.5 C 570.933,167.519 572.267,169.686 573.5,172C 570.5,172.667 567.5,172.667 564.5,172C 566.765,170.242 568.432,168.075 569.5,165.5 Z"/></g>
<g><path style="opacity:0.666" fill="#285ef6" d="M 282.5,78.5 C 299.5,78.5 316.5,78.5 333.5,78.5C 333.657,79.8734 333.49,81.2068 333,82.5C 329.686,83.4049 326.519,84.7382 323.5,86.5C 321.297,88.2954 320.131,90.6288 320,93.5C 319.667,113.833 319.333,134.167 319,154.5C 316.672,171.072 307.172,179.405 290.5,179.5C 281.648,180.472 274.482,177.472 269,170.5C 268.171,165.467 268.338,160.467 269.5,155.5C 275.338,149.944 280.838,150.277 286,156.5C 286.709,160.868 286.542,165.201 285.5,169.5C 285.529,171.029 286.196,172.196 287.5,173C 293.186,174.739 297.02,172.906 299,167.5C 299.667,142.5 299.667,117.5 299,92.5C 295.671,86.4154 290.504,83.2487 283.5,83C 282.62,81.6439 282.286,80.1439 282.5,78.5 Z M 303.5,170.5 C 304.799,142.851 304.799,115.184 303.5,87.5C 302.528,85.3635 300.861,84.1968 298.5,84C 304.5,83.3333 310.5,83.3333 316.5,84C 313.458,84.5546 311.625,86.3879 311,89.5C 310.667,111.5 310.333,133.5 310,155.5C 309.429,161.297 307.262,166.297 303.5,170.5 Z M 273.5,157.5 C 274.496,157.414 275.329,157.748 276,158.5C 276.2,162.753 276.7,166.92 277.5,171C 277.167,171.167 276.833,171.333 276.5,171.5C 272.103,167.366 271.103,162.699 273.5,157.5 Z"/></g>
<g><path style="opacity:0.641" fill="#285ef6" d="M 669.5,78.5 C 679.839,78.3335 690.172,78.5002 700.5,79C 723.057,103.145 746.224,126.979 770,150.5C 770.936,131.123 770.603,111.79 769,92.5C 765.134,86.6459 759.634,83.4792 752.5,83C 751.167,81.6667 751.167,80.3333 752.5,79C 764.495,78.5001 776.495,78.3335 788.5,78.5C 788.5,80.1667 788.5,81.8333 788.5,83.5C 781.905,84.2611 778.072,87.9277 777,94.5C 776.5,122.831 776.333,151.165 776.5,179.5C 774.473,179.662 772.473,179.495 770.5,179C 744.498,151.996 717.998,125.162 691,98.5C 690.333,113.833 690.333,129.167 691,144.5C 690.361,152.949 692.361,160.616 697,167.5C 700.873,170.77 705.373,172.77 710.5,173.5C 711.452,175.045 711.785,176.712 711.5,178.5C 697.833,178.5 684.167,178.5 670.5,178.5C 670.34,176.801 670.506,175.134 671,173.5C 673.071,172.475 675.238,171.642 677.5,171C 679.665,167.853 681.832,164.686 684,161.5C 685.126,149.387 685.626,137.22 685.5,125C 685.333,114.167 685.167,103.333 685,92.5C 680.957,88.123 676.124,84.9564 670.5,83C 669.62,81.6439 669.286,80.1439 669.5,78.5 Z M 682.5,84.5 C 685.976,83.3567 689.642,83.1901 693.5,84C 695.333,86.5 697.167,89 699,91.5C 722.748,115.248 746.414,138.914 770,162.5C 770.667,165.5 770.667,168.5 770,171.5C 741.97,142.469 713.47,113.635 684.5,85C 683.906,84.5357 683.239,84.369 682.5,84.5 Z M 767.5,84.5 C 769.966,83.3659 772.633,83.1993 775.5,84C 773.741,85.008 772.574,86.508 772,88.5C 771.124,86.3645 769.624,85.0312 767.5,84.5 Z M 686.5,165.5 C 688.583,167.424 690.583,169.591 692.5,172C 689.167,172.667 685.833,172.667 682.5,172C 684.734,170.362 686.067,168.195 686.5,165.5 Z"/></g>
<g><path style="opacity:1" fill="#d8d7d6" d="M 140.5,90.5 C 141.547,94.2607 143.381,97.594 146,100.5C 146.667,101.5 146.667,102.5 146,103.5C 140.231,99.5472 134.397,96.0472 128.5,93C 129.06,96.1234 130.06,99.1234 131.5,102C 131.167,102.5 130.833,103 130.5,103.5C 125.522,100.356 121.355,96.3555 118,91.5C 119.053,97.7724 119.719,104.106 120,110.5C 117.293,106.627 114.793,102.627 112.5,98.5C 110.248,102.167 108.915,106.167 108.5,110.5C 107.833,108.833 107.167,107.167 106.5,105.5C 106.5,101.833 106.5,98.1667 106.5,94.5C 107.322,96.3885 108.155,98.3885 109,100.5C 109.881,96.6244 111.214,92.9577 113,89.5C 115.361,96.0692 117.194,95.7359 118.5,88.5C 117.772,86.8453 117.605,85.1786 118,83.5C 121,86.5 124,89.5 127,92.5C 127.833,91.6667 128.667,90.8333 129.5,90C 128.24,88.1862 128.24,86.3529 129.5,84.5C 132.513,87.8376 136.18,89.8376 140.5,90.5 Z"/></g>
<g><path style="opacity:1" fill="#d1d0ce" d="M 97.5,101.5 C 97.205,103.423 96.3717,105.09 95,106.5C 94.918,101.495 94.918,96.4945 95,91.5C 92.128,94.0366 89.628,96.8699 87.5,100C 85.3089,101.919 82.9755,103.253 80.5,104C 82.6719,100.153 84.6719,96.3193 86.5,92.5C 86.4346,92.9382 86.6012,93.2716 87,93.5C 90.6547,90.0112 94.1547,86.3446 97.5,82.5C 97.2758,88.9485 97.2758,95.2818 97.5,101.5 Z"/></g>
<g><path style="opacity:1" fill="#dfdedd" d="M 70.5,95.5 C 63.8374,99.3325 56.8374,102.332 49.5,104.5C 51.7881,100.544 54.7881,97.2109 58.5,94.5C 64.0052,92.4973 69.1719,89.8307 74,86.5C 74.3009,90.1012 73.1343,93.1012 70.5,95.5 Z"/></g>
<g><path style="opacity:1" fill="#dcdbd9" d="M 157.5,95.5 C 162.768,99.0984 167.435,103.432 171.5,108.5C 165.802,107.767 160.469,105.934 155.5,103C 150.1,99.3018 145.1,95.1351 140.5,90.5C 140.804,89.8501 141.137,89.1835 141.5,88.5C 140.36,86.9222 139.86,85.2555 140,83.5C 144.908,88.9184 150.742,92.9184 157.5,95.5 Z"/></g>
<g><path style="opacity:0.992" fill="#2e2d2d" d="M 86.5,90.5 C 86.5,91.1667 86.5,91.8333 86.5,92.5C 84.6719,96.3193 82.6719,100.153 80.5,104C 82.9755,103.253 85.3089,101.919 87.5,100C 89.628,96.8699 92.128,94.0366 95,91.5C 94.918,96.4945 94.918,101.495 95,106.5C 96.3717,105.09 97.205,103.423 97.5,101.5C 100.225,97.7324 102.725,93.7324 105,89.5C 105.352,91.2475 105.852,92.9142 106.5,94.5C 106.5,98.1667 106.5,101.833 106.5,105.5C 106.192,107.924 106.526,110.257 107.5,112.5C 108.298,112.043 108.631,111.376 108.5,110.5C 108.915,106.167 110.248,102.167 112.5,98.5C 114.793,102.627 117.293,106.627 120,110.5C 119.719,104.106 119.053,97.7724 118,91.5C 121.355,96.3555 125.522,100.356 130.5,103.5C 130.833,103 131.167,102.5 131.5,102C 130.06,99.1234 129.06,96.1234 128.5,93C 134.397,96.0472 140.231,99.5472 146,103.5C 146.667,102.5 146.667,101.5 146,100.5C 143.381,97.594 141.547,94.2607 140.5,90.5C 145.1,95.1351 150.1,99.3018 155.5,103C 160.469,105.934 165.802,107.767 171.5,108.5C 182.167,117.833 192.833,127.167 203.5,136.5C 196.552,154.432 185.219,168.765 169.5,179.5C 129.5,179.5 89.5,179.5 49.5,179.5C 47.7446,178.928 46.0779,178.094 44.5,177C 34.8147,167.989 26.648,157.822 20,146.5C 18.5335,143.242 17.3668,139.908 16.5,136.5C 27.4527,125.882 38.4527,115.215 49.5,104.5C 56.8374,102.332 63.8374,99.3325 70.5,95.5C 70.5,96.5 70.5,97.5 70.5,98.5C 67.9733,100.882 66.6399,103.548 66.5,106.5C 74.3999,102.601 80.7332,96.9343 85.5,89.5C 86.1067,89.6236 86.44,89.9569 86.5,90.5 Z"/></g>
<g><path style="opacity:1" fill="#d8d7d5" d="M 86.5,90.5 C 86.44,89.9569 86.1067,89.6236 85.5,89.5C 80.7332,96.9343 74.3999,102.601 66.5,106.5C 66.6399,103.548 67.9733,100.882 70.5,98.5C 73.5479,95.789 76.8812,93.289 80.5,91C 83.2161,87.7391 86.0494,84.5724 89,81.5C 88.7372,84.6825 87.9039,87.6825 86.5,90.5 Z"/></g>
<g><path style="opacity:1" fill="#898887" d="M 106.5,105.5 C 107.167,107.167 107.833,108.833 108.5,110.5C 108.631,111.376 108.298,112.043 107.5,112.5C 106.526,110.257 106.192,107.924 106.5,105.5 Z"/></g>
<g><path style="opacity:0.906" fill="#fbfbfb" d="M 49.5,179.5 C 89.5,179.5 129.5,179.5 169.5,179.5C 157.649,189.421 143.982,195.588 128.5,198C 141.34,198.169 154.007,198.669 166.5,199.5C 129.167,199.5 91.8333,199.5 54.5,199.5C 66.3263,198.669 78.3263,198.169 90.5,198C 75.0178,195.588 61.3511,189.421 49.5,179.5 Z"/></g>
</svg>
